<?xml version="1.0" encoding="utf-8"?>
<!-- Generator: Adobe Illustrator 15.0.0, SVG Export Plug-In . SVG Version: 6.00 Build 0)  -->
<!DOCTYPE svg PUBLIC "-//W3C//DTD SVG 1.1//EN" "http://www.w3.org/Graphics/SVG/1.1/DTD/svg11.dtd">
<svg version="1.1" id="Layer_1" xmlns="http://www.w3.org/2000/svg" xmlns:xlink="http://www.w3.org/1999/xlink" x="0px" y="0px"
	 width="425.2px" height="425.2px" viewBox="0 0 425.2 425.2" enable-background="new 0 0 425.2 425.2" xml:space="preserve">
<g>
	<path fill="#113B6A" d="M219.534,139.429c-8.074,0-14.617,6.545-14.617,14.616c0,2.838,0.822,5.478,2.222,7.72l-9.306,9.306
		c-11.691-10.58-27.194-17.026-44.203-17.026c-36.396,0-65.904,29.508-65.904,65.904c0,36.398,29.508,65.903,65.904,65.903
		c36.397,0,65.904-29.505,65.904-65.903c0-17.009-6.446-32.512-17.026-44.204l9.306-9.306c2.242,1.399,4.882,2.222,7.721,2.222
		c8.07,0,14.613-6.544,14.613-14.615S227.604,139.429,219.534,139.429z"/>
	<g>
		<path fill="#FFFFFF" d="M131.271,233.469c-0.131,0.243-0.457,0.364-0.98,0.364h-6.173c-0.821,0-1.232-0.392-1.232-1.176
			c0-2.47,0.008-4.92,0.027-7.353c0.02-2.431,0.027-4.88,0.027-7.349c0-1.571-0.271-2.684-0.813-3.338s-1.413-0.982-2.609-0.982
			c-0.896,0-1.871,0.216-2.917,0.646c-1.046,0.431-1.909,0.759-2.58,0.981v17.395c0,0.299-0.065,0.57-0.197,0.812
			c-0.131,0.243-0.46,0.364-0.982,0.364h-6.116c-0.484,0-0.811-0.102-0.98-0.307c-0.167-0.205-0.252-0.496-0.252-0.869v-25.248
			c0-0.375,0.085-0.674,0.252-0.898c0.17-0.224,0.496-0.338,0.98-0.338h6.116c0.522,0,0.852,0.132,0.982,0.394
			c0.132,0.262,0.197,0.542,0.197,0.843v1.347c0.036,0,0.063,0.009,0.082,0.026c0.02,0.02,0.05,0.029,0.085,0.029
			c1.235-0.935,2.673-1.693,4.322-2.273c1.643-0.578,3.141-0.869,4.485-0.869c1.983,0,3.544,0.329,4.687,0.982
			c1.142,0.656,1.991,1.515,2.552,2.581c0.562,1.065,0.907,2.253,1.038,3.562c0.132,1.311,0.197,2.619,0.197,3.928v15.936
			C131.469,232.956,131.403,233.228,131.271,233.469z"/>
		<path fill="#FFFFFF" d="M157.046,207.521c0.522,1.684,1.029,3.356,1.514,5.021c0.485,1.665,0.976,3.34,1.46,5.021l1.682,5.837
			h0.225l1.797-7.015l2.3-8.92c0.148-0.524,0.311-0.87,0.477-1.038c0.168-0.168,0.458-0.254,0.871-0.254h6.283
			c0.522,0,0.821,0.123,0.898,0.365c0.073,0.244,0.055,0.516-0.058,0.816l-7.743,24.74c-0.186,0.563-0.41,0.992-0.67,1.291
			c-0.264,0.299-0.77,0.447-1.518,0.447h-4.713c-0.636,0-1.085-0.102-1.346-0.307c-0.263-0.205-0.506-0.646-0.73-1.32l-1.345-4.039
			l-1.852-5.498h-0.17l-2.076,5.666l-1.401,3.871c-0.187,0.487-0.403,0.881-0.646,1.18c-0.244,0.299-0.775,0.447-1.598,0.447h-4.321
			c-0.747,0-1.263-0.111-1.542-0.336s-0.515-0.634-0.701-1.233l-8.358-24.854c-0.041-0.113-0.058-0.261-0.058-0.449
			c0-0.523,0.299-0.787,0.898-0.787h6.34c0.485,0,0.842,0.077,1.066,0.225c0.224,0.151,0.41,0.469,0.561,0.957l2.522,9.367
			l1.967,7.181h0.279l2.021-6.34l1.515-4.431l-1.966-5.723c-0.109-0.301-0.102-0.581,0.029-0.843c0.129-0.262,0.4-0.394,0.814-0.394
			h5.611c0.562,0,0.934,0.066,1.12,0.197C156.673,206.502,156.859,206.886,157.046,207.521z"/>
		<path fill="#FFFFFF" d="M192.769,230.468c-0.747,0.674-1.55,1.255-2.412,1.738c-0.86,0.487-1.739,0.891-2.638,1.207
			c-0.896,0.318-1.774,0.541-2.635,0.673c-0.862,0.132-1.648,0.196-2.357,0.196c-1.646,0-2.982-0.234-4.01-0.701
			c-1.03-0.466-1.824-1.074-2.386-1.824c-0.561-0.748-0.944-1.617-1.15-2.608c-0.205-0.99-0.307-2.029-0.307-3.112
			c-0.041-1.721,0.195-3.18,0.699-4.377c0.506-1.197,1.227-2.16,2.16-2.889c0.934-0.73,2.076-1.254,3.424-1.572
			c1.348-0.316,2.843-0.477,4.488-0.477h6.45v-0.896c0-0.6-0.066-1.104-0.194-1.517c-0.132-0.411-0.376-0.746-0.731-1.011
			c-0.354-0.26-0.849-0.455-1.484-0.588c-0.639-0.131-1.479-0.196-2.525-0.196c-0.413,0-0.926,0.019-1.542,0.056
			c-0.619,0.039-1.266,0.076-1.938,0.113c-0.674,0.037-1.345,0.094-2.019,0.168c-0.671,0.076-1.29,0.131-1.852,0.17
			c-0.786,0.074-1.301,0.074-1.542,0c-0.243-0.076-0.44-0.395-0.591-0.956l-0.617-2.918c-0.076-0.483-0.008-0.888,0.197-1.205
			c0.206-0.316,0.737-0.646,1.6-0.981c0.636-0.225,1.375-0.422,2.216-0.59s1.7-0.308,2.58-0.422c0.879-0.11,1.75-0.195,2.609-0.252
			c0.86-0.055,1.608-0.083,2.243-0.083c2.618,0,4.722,0.243,6.313,0.729c1.589,0.486,2.808,1.179,3.648,2.076
			s1.391,2.002,1.654,3.312c0.263,1.309,0.392,2.805,0.392,4.486v8.865c0,0.599,0.03,1.066,0.085,1.404
			c0.057,0.335,0.158,0.587,0.309,0.757c0.148,0.169,0.354,0.289,0.617,0.364c0.263,0.075,0.618,0.131,1.064,0.168
			c0.488,0.037,0.806,0.122,0.956,0.252c0.147,0.132,0.222,0.366,0.222,0.701v3.591c0,0.749-0.539,1.235-1.624,1.458
			c-1.049,0.262-2.21,0.395-3.48,0.395c-1.383,0-2.599-0.235-3.646-0.702c-1.049-0.468-1.758-1.448-2.133-2.944L192.769,230.468z
			 M191.929,222.165h-5.051c-1.046,0-1.87,0.242-2.467,0.729c-0.601,0.486-0.898,1.384-0.898,2.693c0,0.859,0.178,1.458,0.531,1.795
			c0.355,0.337,1.021,0.506,1.993,0.506c0.86,0,1.86-0.206,3.002-0.618s2.104-0.861,2.89-1.347V222.165z"/>
	</g>
	<g>
		<path fill="#113B6A" d="M247.387,207.278c0.042,0.154,0.024,0.294-0.053,0.42c-0.077,0.127-0.187,0.211-0.326,0.252
			c-0.252,0.084-0.522,0.154-0.81,0.211c-0.288,0.057-0.571,0.102-0.852,0.137c-0.281,0.035-0.544,0.06-0.789,0.074
			c-0.246,0.014-0.452,0.021-0.621,0.021c-0.659,0-1.191-0.095-1.598-0.284c-0.407-0.189-0.723-0.438-0.947-0.746
			c-0.224-0.309-0.375-0.663-0.452-1.063c-0.077-0.4-0.115-0.816-0.115-1.252v-4.689h-0.926c-0.168,0-0.284-0.039-0.347-0.116
			c-0.063-0.077-0.095-0.192-0.095-0.347v-1.578c0-0.154,0.031-0.27,0.095-0.348c0.063-0.076,0.179-0.115,0.347-0.115h0.946v-2.061
			c0-0.168,0.042-0.291,0.127-0.369c0.084-0.076,0.196-0.137,0.336-0.178l2.125-0.568c0.153-0.056,0.28-0.053,0.378,0.011
			c0.099,0.063,0.147,0.179,0.147,0.347v2.818h2.146c0.196,0,0.318,0.035,0.368,0.105c0.049,0.07,0.073,0.183,0.073,0.336v1.6
			c0,0.154-0.024,0.27-0.073,0.347c-0.05,0.077-0.172,0.116-0.368,0.116h-2.167l0.021,3.912c0,0.195,0.011,0.364,0.031,0.504
			c0.021,0.141,0.074,0.256,0.158,0.348c0.084,0.091,0.21,0.161,0.379,0.21c0.168,0.05,0.406,0.073,0.715,0.073
			c0.168,0,0.386-0.006,0.652-0.021c0.266-0.015,0.532-0.035,0.799-0.063c0.14,0,0.252,0.014,0.337,0.043
			c0.084,0.027,0.14,0.16,0.168,0.398L247.387,207.278z"/>
		<path fill="#113B6A" d="M258.303,207.761c0,0.113-0.024,0.219-0.073,0.316c-0.05,0.098-0.172,0.146-0.368,0.146h-2.314
			c-0.309,0-0.462-0.154-0.462-0.463c0-0.224,0-0.602,0-1.135s0.003-1.098,0.01-1.693s0.011-1.16,0.011-1.693s0-0.911,0-1.136
			c0-0.575-0.102-0.981-0.305-1.22s-0.529-0.357-0.979-0.357c-0.154,0-0.326,0.021-0.515,0.063
			c-0.189,0.043-0.379,0.095-0.568,0.158c-0.189,0.063-0.368,0.129-0.536,0.199s-0.315,0.134-0.441,0.189v6.625
			c0,0.113-0.025,0.219-0.074,0.316s-0.172,0.146-0.368,0.146h-2.313c-0.168,0-0.284-0.041-0.347-0.125
			c-0.063-0.085-0.095-0.197-0.095-0.338v-13.924c0-0.14,0.031-0.252,0.095-0.336c0.063-0.084,0.179-0.127,0.347-0.127h2.335
			c0.196,0,0.318,0.05,0.368,0.148c0.049,0.098,0.073,0.203,0.073,0.314v4.754c0.435-0.238,0.933-0.455,1.493-0.652
			c0.561-0.195,1.107-0.294,1.641-0.294c0.785,0,1.406,0.123,1.861,0.368c0.456,0.245,0.796,0.568,1.021,0.967
			c0.224,0.4,0.364,0.846,0.421,1.336c0.056,0.491,0.084,0.982,0.084,1.473V207.761z"/>
		<path fill="#113B6A" d="M263.456,203.786c0.014,0.406,0.076,0.736,0.188,0.988s0.264,0.453,0.452,0.6
			c0.189,0.147,0.421,0.246,0.694,0.295s0.586,0.073,0.937,0.073c0.322,0,0.708-0.021,1.156-0.063
			c0.449-0.041,0.891-0.091,1.325-0.146c0.28-0.028,0.456-0.025,0.526,0.01c0.069,0.035,0.133,0.187,0.188,0.453l0.169,0.988
			c0.042,0.238,0.042,0.424,0,0.557c-0.042,0.134-0.225,0.264-0.547,0.39c-0.211,0.07-0.46,0.137-0.747,0.2
			c-0.287,0.063-0.582,0.115-0.883,0.157c-0.302,0.042-0.607,0.073-0.915,0.095c-0.309,0.021-0.589,0.031-0.842,0.031
			c-1.052,0-1.903-0.146-2.556-0.441c-0.651-0.295-1.156-0.684-1.515-1.168c-0.357-0.482-0.599-1.044-0.726-1.682
			c-0.126-0.639-0.188-1.308-0.188-2.009c0-0.505,0.042-1.073,0.126-1.704s0.287-1.227,0.609-1.787
			c0.323-0.561,0.803-1.031,1.441-1.41c0.638-0.379,1.511-0.567,2.618-0.567c1.01,0,1.823,0.144,2.44,0.431
			c0.616,0.288,1.097,0.663,1.44,1.125c0.344,0.463,0.578,0.979,0.705,1.547c0.126,0.568,0.188,1.133,0.188,1.693
			c0,0.435-0.08,0.768-0.241,0.998c-0.162,0.232-0.467,0.348-0.915,0.348H263.456z M264.97,200.105
			c-0.491,0-0.852,0.151-1.083,0.452c-0.231,0.302-0.361,0.746-0.389,1.336h2.923c0-0.506-0.104-0.93-0.315-1.273
			C265.896,200.277,265.517,200.105,264.97,200.105z"/>
		<path fill="#113B6A" d="M249.605,227.718c-0.05,0.092-0.172,0.137-0.368,0.137h-2.313c-0.309,0-0.463-0.146-0.463-0.441
			c0-0.926,0.003-1.844,0.011-2.756c0.007-0.91,0.011-1.829,0.011-2.754c0-0.59-0.103-1.007-0.306-1.252
			c-0.203-0.246-0.529-0.368-0.978-0.368c-0.337,0-0.701,0.081-1.094,0.241c-0.393,0.162-0.715,0.285-0.968,0.369v6.52
			c0,0.113-0.024,0.215-0.073,0.305c-0.05,0.092-0.172,0.137-0.368,0.137h-2.293c-0.183,0-0.305-0.038-0.368-0.115
			c-0.063-0.076-0.095-0.186-0.095-0.326v-9.465c0-0.14,0.032-0.252,0.095-0.336c0.063-0.084,0.186-0.127,0.368-0.127h2.293
			c0.196,0,0.318,0.05,0.368,0.147c0.049,0.099,0.073,0.204,0.073,0.315v0.505c0.014,0,0.024,0.003,0.031,0.011
			c0.007,0.007,0.018,0.01,0.032,0.01c0.463-0.35,1.002-0.634,1.619-0.852c0.617-0.217,1.178-0.326,1.683-0.326
			c0.743,0,1.328,0.123,1.757,0.369c0.427,0.244,0.746,0.567,0.957,0.967c0.21,0.4,0.339,0.846,0.389,1.336
			c0.049,0.49,0.073,0.981,0.073,1.473v5.973C249.679,227.526,249.654,227.628,249.605,227.718z"/>
		<path fill="#113B6A" d="M254.854,223.417c0.014,0.406,0.076,0.736,0.188,0.988s0.264,0.453,0.452,0.6
			c0.189,0.147,0.421,0.246,0.694,0.295s0.586,0.073,0.937,0.073c0.322,0,0.708-0.021,1.156-0.063
			c0.449-0.041,0.891-0.091,1.325-0.146c0.28-0.028,0.456-0.025,0.526,0.01c0.069,0.035,0.133,0.187,0.188,0.453l0.169,0.988
			c0.042,0.238,0.042,0.424,0,0.557c-0.042,0.134-0.225,0.264-0.547,0.39c-0.211,0.07-0.46,0.137-0.747,0.2
			c-0.287,0.063-0.582,0.115-0.883,0.157c-0.302,0.042-0.607,0.073-0.915,0.095c-0.309,0.021-0.589,0.031-0.842,0.031
			c-1.052,0-1.903-0.146-2.556-0.441c-0.651-0.295-1.156-0.684-1.515-1.168c-0.357-0.482-0.599-1.044-0.726-1.682
			c-0.126-0.639-0.188-1.308-0.188-2.009c0-0.505,0.042-1.073,0.126-1.704s0.287-1.227,0.609-1.787
			c0.323-0.561,0.803-1.031,1.441-1.41c0.638-0.379,1.511-0.567,2.618-0.567c1.01,0,1.823,0.144,2.44,0.431
			c0.616,0.288,1.097,0.663,1.44,1.125c0.344,0.463,0.578,0.979,0.705,1.547c0.126,0.568,0.188,1.133,0.188,1.693
			c0,0.435-0.08,0.768-0.241,0.998c-0.162,0.232-0.467,0.348-0.915,0.348H254.854z M256.367,219.736
			c-0.491,0-0.852,0.151-1.083,0.452c-0.231,0.302-0.361,0.746-0.389,1.336h2.923c0-0.506-0.104-0.93-0.315-1.273
			C257.293,219.908,256.914,219.736,256.367,219.736z"/>
		<path fill="#113B6A" d="M270.334,226.909c0.042,0.154,0.024,0.294-0.053,0.42c-0.077,0.127-0.187,0.211-0.326,0.252
			c-0.252,0.084-0.522,0.154-0.81,0.211c-0.288,0.057-0.571,0.102-0.852,0.137c-0.281,0.035-0.544,0.06-0.789,0.074
			c-0.246,0.014-0.452,0.021-0.621,0.021c-0.659,0-1.191-0.095-1.598-0.284c-0.407-0.189-0.723-0.438-0.947-0.746
			c-0.224-0.309-0.375-0.663-0.452-1.063c-0.077-0.4-0.115-0.816-0.115-1.252v-4.689h-0.926c-0.168,0-0.284-0.039-0.347-0.116
			c-0.063-0.077-0.095-0.192-0.095-0.347v-1.578c0-0.154,0.031-0.27,0.095-0.348c0.063-0.076,0.179-0.115,0.347-0.115h0.946v-2.061
			c0-0.168,0.042-0.291,0.127-0.369c0.084-0.076,0.196-0.137,0.336-0.178l2.125-0.568c0.153-0.056,0.28-0.053,0.378,0.011
			c0.099,0.063,0.147,0.179,0.147,0.347v2.818h2.146c0.196,0,0.318,0.035,0.368,0.105c0.049,0.07,0.073,0.183,0.073,0.336v1.6
			c0,0.154-0.024,0.27-0.073,0.347c-0.05,0.077-0.172,0.116-0.368,0.116h-2.167l0.021,3.912c0,0.195,0.011,0.364,0.031,0.504
			c0.021,0.141,0.074,0.256,0.158,0.348c0.084,0.091,0.21,0.161,0.379,0.21c0.168,0.05,0.406,0.073,0.715,0.073
			c0.168,0,0.386-0.006,0.652-0.021c0.266-0.015,0.532-0.035,0.799-0.063c0.14,0,0.252,0.014,0.337,0.043
			c0.084,0.027,0.14,0.16,0.168,0.398L270.334,226.909z"/>
		<path fill="#113B6A" d="M279.588,217.99c0.196,0.632,0.386,1.259,0.568,1.883c0.182,0.624,0.364,1.251,0.547,1.882l0.631,2.188
			h0.084l0.673-2.629l0.862-3.344c0.057-0.196,0.116-0.326,0.18-0.39c0.063-0.063,0.171-0.095,0.325-0.095h2.356
			c0.196,0,0.308,0.046,0.336,0.137c0.028,0.092,0.021,0.193-0.021,0.305l-2.903,9.276c-0.07,0.21-0.154,0.372-0.252,0.483
			c-0.099,0.113-0.287,0.168-0.568,0.168h-1.767c-0.238,0-0.406-0.038-0.505-0.115c-0.098-0.076-0.188-0.242-0.273-0.494
			l-0.505-1.515l-0.693-2.062H278.6l-0.778,2.125l-0.525,1.451c-0.07,0.182-0.151,0.33-0.242,0.441
			c-0.091,0.113-0.291,0.168-0.6,0.168h-1.619c-0.281,0-0.474-0.041-0.578-0.125c-0.105-0.085-0.193-0.238-0.264-0.463l-3.134-9.318
			c-0.014-0.042-0.021-0.098-0.021-0.168c0-0.196,0.111-0.295,0.336-0.295h2.377c0.182,0,0.315,0.028,0.399,0.084
			c0.084,0.057,0.154,0.176,0.211,0.357l0.946,3.514l0.736,2.691h0.104l0.758-2.377l0.567-1.661l-0.736-2.146
			c-0.042-0.111-0.038-0.217,0.011-0.315c0.049-0.098,0.15-0.147,0.305-0.147h2.104c0.211,0,0.351,0.025,0.421,0.074
			S279.518,217.752,279.588,217.99z"/>
		<path fill="#113B6A" d="M291.051,214.73c0,0.196-0.021,0.39-0.063,0.578c-0.042,0.189-0.123,0.358-0.242,0.505
			c-0.119,0.147-0.287,0.267-0.505,0.357c-0.218,0.092-0.501,0.137-0.852,0.137c-0.365,0-0.659-0.045-0.884-0.137
			c-0.225-0.091-0.396-0.213-0.515-0.368c-0.12-0.153-0.197-0.322-0.231-0.505c-0.035-0.182-0.053-0.371-0.053-0.567
			c0-0.435,0.111-0.803,0.336-1.104c0.225-0.301,0.674-0.452,1.347-0.452c0.336,0,0.613,0.038,0.831,0.116
			c0.217,0.076,0.389,0.186,0.515,0.326c0.126,0.14,0.211,0.305,0.253,0.494S291.051,214.507,291.051,214.73z M290.946,227.392
			c0,0.113-0.025,0.219-0.074,0.316s-0.165,0.146-0.347,0.146h-2.313c-0.183,0-0.306-0.041-0.368-0.125
			c-0.063-0.085-0.095-0.197-0.095-0.338v-9.465c0-0.153,0.031-0.27,0.095-0.347c0.063-0.077,0.186-0.116,0.368-0.116h2.313
			c0.182,0,0.298,0.053,0.347,0.158s0.074,0.207,0.074,0.305V227.392z"/>
		<path fill="#113B6A" d="M302.892,227.413c0,0.113-0.024,0.215-0.074,0.305c-0.049,0.092-0.173,0.137-0.37,0.137h-2.329
			c-0.17,0-0.282-0.034-0.339-0.104s-0.085-0.175-0.085-0.315v-0.547c-0.014,0-0.024-0.004-0.031-0.011s-0.018-0.011-0.031-0.011
			c-0.463,0.352-0.954,0.631-1.473,0.842c-0.519,0.21-1.023,0.315-1.515,0.315c-0.715,0-1.301-0.13-1.756-0.39
			c-0.456-0.259-0.813-0.62-1.072-1.083c-0.26-0.462-0.438-1.013-0.537-1.651c-0.098-0.638-0.146-1.335-0.146-2.092
			c0-0.842,0.052-1.603,0.157-2.283c0.105-0.68,0.312-1.262,0.62-1.745s0.743-0.858,1.305-1.126c0.561-0.266,1.29-0.398,2.188-0.398
			c0.477,0,0.894,0.031,1.251,0.094c0.357,0.063,0.697,0.145,1.021,0.242l0.021-0.021v-4.08c0-0.141,0.028-0.256,0.085-0.348
			c0.057-0.09,0.177-0.137,0.36-0.137h2.308c0.197,0,0.321,0.053,0.37,0.158c0.05,0.105,0.074,0.215,0.074,0.326V227.413z
			 M299.674,220.241c-0.365-0.098-0.673-0.161-0.926-0.189c-0.252-0.027-0.491-0.042-0.715-0.042c-0.295,0-0.547,0.038-0.758,0.116
			c-0.21,0.076-0.382,0.217-0.515,0.42c-0.134,0.203-0.229,0.477-0.284,0.82s-0.084,0.789-0.084,1.336
			c0,0.519,0.024,0.936,0.073,1.251s0.127,0.562,0.231,0.736c0.105,0.175,0.238,0.291,0.399,0.347
			c0.161,0.057,0.348,0.084,0.558,0.084c0.168,0,0.344-0.021,0.526-0.063c0.182-0.042,0.364-0.095,0.547-0.158
			c0.182-0.063,0.354-0.133,0.515-0.21s0.306-0.144,0.432-0.2V220.241z"/>
		<path fill="#113B6A" d="M308.088,223.417c0.014,0.406,0.076,0.736,0.188,0.988s0.264,0.453,0.452,0.6
			c0.189,0.147,0.421,0.246,0.694,0.295s0.586,0.073,0.937,0.073c0.322,0,0.708-0.021,1.156-0.063
			c0.449-0.041,0.891-0.091,1.325-0.146c0.28-0.028,0.456-0.025,0.526,0.01c0.069,0.035,0.133,0.187,0.188,0.453l0.169,0.988
			c0.042,0.238,0.042,0.424,0,0.557c-0.042,0.134-0.225,0.264-0.547,0.39c-0.211,0.07-0.46,0.137-0.747,0.2
			c-0.287,0.063-0.582,0.115-0.883,0.157c-0.302,0.042-0.607,0.073-0.915,0.095c-0.309,0.021-0.589,0.031-0.842,0.031
			c-1.052,0-1.903-0.146-2.556-0.441c-0.651-0.295-1.156-0.684-1.515-1.168c-0.357-0.482-0.599-1.044-0.726-1.682
			c-0.126-0.639-0.188-1.308-0.188-2.009c0-0.505,0.042-1.073,0.126-1.704s0.287-1.227,0.609-1.787
			c0.323-0.561,0.803-1.031,1.441-1.41c0.638-0.379,1.511-0.567,2.618-0.567c1.01,0,1.823,0.144,2.44,0.431
			c0.616,0.288,1.097,0.663,1.44,1.125c0.344,0.463,0.578,0.979,0.705,1.547c0.126,0.568,0.188,1.133,0.188,1.693
			c0,0.435-0.08,0.768-0.241,0.998c-0.162,0.232-0.467,0.348-0.915,0.348H308.088z M309.602,219.736
			c-0.491,0-0.852,0.151-1.083,0.452c-0.231,0.302-0.361,0.746-0.389,1.336h2.923c0-0.506-0.104-0.93-0.315-1.273
			C310.527,219.908,310.148,219.736,309.602,219.736z"/>
		<path fill="#113B6A" d="M246.482,246.224c-0.281,0.252-0.582,0.471-0.905,0.652c-0.322,0.182-0.651,0.333-0.988,0.452
			c-0.336,0.119-0.666,0.203-0.988,0.253c-0.323,0.049-0.617,0.073-0.884,0.073c-0.617,0-1.118-0.088-1.504-0.263
			c-0.386-0.176-0.684-0.403-0.894-0.684c-0.21-0.281-0.354-0.607-0.432-0.979s-0.115-0.76-0.115-1.168
			c-0.014-0.645,0.073-1.191,0.263-1.64s0.459-0.81,0.81-1.083s0.778-0.471,1.283-0.59s1.065-0.178,1.683-0.178h2.419v-0.337
			c0-0.224-0.024-0.413-0.073-0.567c-0.05-0.154-0.141-0.281-0.273-0.379c-0.134-0.098-0.319-0.172-0.558-0.221
			s-0.554-0.074-0.946-0.074c-0.154,0-0.348,0.008-0.579,0.021c-0.23,0.014-0.473,0.027-0.726,0.041
			c-0.252,0.015-0.504,0.035-0.757,0.064c-0.252,0.027-0.483,0.049-0.694,0.063c-0.294,0.028-0.487,0.028-0.578,0
			c-0.092-0.027-0.165-0.147-0.221-0.357l-0.231-1.094c-0.028-0.182-0.004-0.333,0.073-0.453c0.077-0.118,0.277-0.241,0.6-0.367
			c0.238-0.084,0.516-0.158,0.831-0.221c0.315-0.063,0.638-0.116,0.968-0.158c0.329-0.042,0.655-0.073,0.978-0.095
			c0.322-0.021,0.603-0.031,0.842-0.031c0.981,0,1.77,0.091,2.366,0.273c0.596,0.183,1.052,0.441,1.367,0.778
			c0.315,0.336,0.521,0.75,0.62,1.24c0.098,0.492,0.147,1.053,0.147,1.684v3.322c0,0.225,0.011,0.4,0.031,0.526
			c0.021,0.126,0.06,0.221,0.116,0.284c0.056,0.063,0.133,0.108,0.231,0.137c0.098,0.027,0.23,0.049,0.399,0.063
			c0.182,0.015,0.301,0.046,0.357,0.096c0.056,0.049,0.084,0.137,0.084,0.262v1.347c0,0.28-0.203,0.463-0.61,0.547
			c-0.393,0.098-0.827,0.147-1.304,0.147c-0.519,0-0.975-0.088-1.367-0.264c-0.393-0.175-0.659-0.543-0.799-1.104L246.482,246.224z
			 M246.167,243.11h-1.894c-0.393,0-0.701,0.092-0.926,0.273c-0.224,0.184-0.336,0.52-0.336,1.01c0,0.323,0.066,0.547,0.199,0.674
			c0.134,0.126,0.382,0.189,0.747,0.189c0.322,0,0.697-0.078,1.125-0.232s0.789-0.322,1.084-0.504V243.11z"/>
		<path fill="#113B6A" d="M260.49,244.214c0,0.656-0.13,1.206-0.39,1.646c-0.26,0.441-0.606,0.794-1.041,1.06
			s-0.929,0.458-1.482,0.577c-0.555,0.119-1.133,0.178-1.735,0.178c-0.253,0-0.526-0.01-0.82-0.031
			c-0.295-0.021-0.593-0.052-0.895-0.094c-0.302-0.041-0.589-0.09-0.862-0.146c-0.273-0.055-0.515-0.117-0.726-0.188
			c-0.351-0.125-0.575-0.254-0.673-0.386c-0.099-0.132-0.112-0.337-0.042-0.615l0.231-1.001c0.042-0.196,0.105-0.314,0.189-0.357
			c0.084-0.042,0.245-0.042,0.483,0c0.491,0.084,1.023,0.15,1.599,0.2s1.044,0.073,1.409,0.073c0.533,0,0.911-0.059,1.136-0.179
			s0.337-0.319,0.337-0.601c0-0.311-0.084-0.518-0.253-0.623c-0.168-0.105-0.477-0.186-0.925-0.242
			c-0.575-0.084-1.112-0.183-1.609-0.295c-0.498-0.113-0.937-0.281-1.314-0.506c-0.379-0.225-0.677-0.527-0.895-0.907
			c-0.217-0.38-0.325-0.879-0.325-1.497c0-0.563,0.107-1.055,0.323-1.477s0.512-0.772,0.888-1.054
			c0.376-0.282,0.826-0.492,1.349-0.633s1.093-0.211,1.71-0.211c0.238,0,0.501,0.011,0.788,0.032
			c0.288,0.021,0.579,0.049,0.873,0.084c0.295,0.035,0.579,0.082,0.853,0.139s0.521,0.127,0.746,0.212
			c0.28,0.099,0.487,0.201,0.621,0.308c0.133,0.105,0.164,0.293,0.094,0.562l-0.23,1.082c-0.057,0.196-0.116,0.316-0.18,0.358
			c-0.063,0.042-0.214,0.049-0.452,0.021c-0.238-0.028-0.497-0.061-0.777-0.096c-0.281-0.034-0.558-0.063-0.831-0.084
			c-0.273-0.021-0.529-0.038-0.768-0.053c-0.239-0.014-0.442-0.021-0.61-0.021c-0.533-0.014-0.866,0.046-0.999,0.179
			c-0.134,0.133-0.2,0.311-0.2,0.535c0,0.266,0.123,0.437,0.37,0.514c0.246,0.076,0.56,0.15,0.939,0.221
			c0.549,0.069,1.069,0.156,1.563,0.262c0.492,0.105,0.926,0.275,1.299,0.514s0.672,0.557,0.897,0.955
			C260.377,243.028,260.49,243.556,260.49,244.214z"/>
		<path fill="#113B6A" d="M270.755,244.214c0,0.656-0.13,1.206-0.39,1.646c-0.26,0.441-0.606,0.794-1.041,1.06
			s-0.929,0.458-1.482,0.577c-0.555,0.119-1.133,0.178-1.735,0.178c-0.253,0-0.526-0.01-0.82-0.031
			c-0.295-0.021-0.593-0.052-0.895-0.094c-0.302-0.041-0.589-0.09-0.862-0.146c-0.273-0.055-0.515-0.117-0.726-0.188
			c-0.351-0.125-0.575-0.254-0.673-0.386c-0.099-0.132-0.112-0.337-0.042-0.615l0.231-1.001c0.042-0.196,0.105-0.314,0.189-0.357
			c0.084-0.042,0.245-0.042,0.483,0c0.491,0.084,1.023,0.15,1.599,0.2s1.044,0.073,1.409,0.073c0.533,0,0.911-0.059,1.136-0.179
			s0.337-0.319,0.337-0.601c0-0.311-0.084-0.518-0.253-0.623c-0.168-0.105-0.477-0.186-0.925-0.242
			c-0.575-0.084-1.112-0.183-1.609-0.295c-0.498-0.113-0.937-0.281-1.314-0.506c-0.379-0.225-0.677-0.527-0.895-0.907
			c-0.217-0.38-0.325-0.879-0.325-1.497c0-0.563,0.107-1.055,0.323-1.477s0.512-0.772,0.888-1.054
			c0.376-0.282,0.826-0.492,1.349-0.633s1.093-0.211,1.71-0.211c0.238,0,0.501,0.011,0.788,0.032
			c0.288,0.021,0.579,0.049,0.873,0.084c0.295,0.035,0.579,0.082,0.853,0.139s0.521,0.127,0.746,0.212
			c0.28,0.099,0.487,0.201,0.621,0.308c0.133,0.105,0.164,0.293,0.094,0.562l-0.23,1.082c-0.057,0.196-0.116,0.316-0.18,0.358
			c-0.063,0.042-0.214,0.049-0.452,0.021c-0.238-0.028-0.497-0.061-0.777-0.096c-0.281-0.034-0.558-0.063-0.831-0.084
			c-0.273-0.021-0.529-0.038-0.768-0.053c-0.239-0.014-0.442-0.021-0.61-0.021c-0.533-0.014-0.866,0.046-0.999,0.179
			c-0.134,0.133-0.2,0.311-0.2,0.535c0,0.266,0.123,0.437,0.37,0.514c0.246,0.076,0.56,0.15,0.939,0.221
			c0.549,0.069,1.069,0.156,1.563,0.262c0.492,0.105,0.926,0.275,1.299,0.514s0.672,0.557,0.897,0.955
			C270.642,243.028,270.755,243.556,270.755,244.214z"/>
		<path fill="#113B6A" d="M275.697,243.048c0.014,0.406,0.076,0.736,0.188,0.988s0.264,0.453,0.452,0.6
			c0.189,0.147,0.421,0.246,0.694,0.295s0.586,0.073,0.937,0.073c0.322,0,0.708-0.021,1.156-0.063
			c0.449-0.041,0.891-0.091,1.325-0.146c0.28-0.028,0.456-0.025,0.526,0.01c0.069,0.035,0.133,0.187,0.188,0.453l0.169,0.988
			c0.042,0.238,0.042,0.424,0,0.557c-0.042,0.134-0.225,0.264-0.547,0.39c-0.211,0.07-0.46,0.137-0.747,0.2
			c-0.287,0.063-0.582,0.115-0.883,0.157c-0.302,0.042-0.607,0.073-0.915,0.095c-0.309,0.021-0.589,0.031-0.842,0.031
			c-1.052,0-1.903-0.146-2.556-0.441c-0.651-0.295-1.156-0.684-1.515-1.168c-0.357-0.482-0.599-1.044-0.726-1.682
			c-0.126-0.639-0.188-1.308-0.188-2.009c0-0.505,0.042-1.073,0.126-1.704s0.287-1.227,0.609-1.787
			c0.323-0.561,0.803-1.031,1.441-1.41c0.638-0.379,1.511-0.567,2.618-0.567c1.01,0,1.823,0.144,2.44,0.431
			c0.616,0.288,1.097,0.663,1.44,1.125c0.344,0.463,0.578,0.979,0.705,1.547c0.126,0.568,0.188,1.133,0.188,1.693
			c0,0.435-0.08,0.768-0.241,0.998c-0.162,0.232-0.467,0.348-0.915,0.348H275.697z M277.211,239.367
			c-0.491,0-0.852,0.151-1.083,0.452c-0.231,0.302-0.361,0.746-0.389,1.336h2.923c0-0.506-0.104-0.93-0.315-1.273
			C278.137,239.539,277.758,239.367,277.211,239.367z"/>
		<path fill="#113B6A" d="M299.369,247.349c-0.05,0.092-0.165,0.137-0.348,0.137h-2.313c-0.183,0-0.305-0.038-0.368-0.115
			c-0.063-0.076-0.095-0.186-0.095-0.326v-5.531c0-0.645-0.098-1.072-0.294-1.283s-0.491-0.315-0.884-0.315
			c-0.252,0-0.561,0.066-0.925,0.2c-0.365,0.133-0.681,0.27-0.947,0.41v6.52c0,0.113-0.024,0.215-0.073,0.305
			c-0.049,0.092-0.172,0.137-0.368,0.137h-2.313c-0.168,0-0.284-0.038-0.347-0.115c-0.063-0.076-0.095-0.186-0.095-0.326v-5.595
			c0-0.589-0.096-0.991-0.286-1.21c-0.19-0.217-0.477-0.325-0.858-0.325c-0.254,0-0.561,0.063-0.921,0.188
			c-0.36,0.127-0.688,0.268-0.984,0.422v6.52c0,0.113-0.028,0.215-0.084,0.305c-0.056,0.092-0.182,0.137-0.376,0.137h-2.299
			c-0.167,0-0.282-0.038-0.345-0.115c-0.063-0.076-0.094-0.186-0.094-0.326v-9.465c0-0.14,0.031-0.252,0.094-0.336
			s0.178-0.127,0.345-0.127h2.299c0.194,0,0.32,0.05,0.376,0.147c0.056,0.099,0.084,0.204,0.084,0.315v0.484l0.042,0.021
			c0.448-0.364,0.938-0.648,1.472-0.853c0.533-0.202,1.073-0.305,1.62-0.305c0.631,0,1.185,0.116,1.661,0.348
			c0.477,0.23,0.827,0.592,1.052,1.083c0.491-0.407,1.048-0.747,1.672-1.021s1.252-0.41,1.883-0.41c0.743,0,1.321,0.123,1.735,0.369
			c0.413,0.244,0.722,0.564,0.926,0.957c0.203,0.393,0.325,0.834,0.368,1.324c0.042,0.491,0.063,0.982,0.063,1.473v5.994
			C299.442,247.157,299.418,247.259,299.369,247.349z"/>
		<path fill="#113B6A" d="M304.639,237.264c0.407-0.126,0.791-0.218,1.149-0.273c0.359-0.056,0.686-0.084,0.981-0.084
			c0.928,0,1.681,0.13,2.258,0.39c0.576,0.259,1.023,0.623,1.34,1.094c0.316,0.469,0.531,1.027,0.644,1.672s0.169,1.354,0.169,2.124
			c0,0.827-0.063,1.581-0.189,2.261c-0.126,0.681-0.368,1.259-0.726,1.735c-0.357,0.478-0.849,0.845-1.473,1.104
			s-1.434,0.389-2.429,0.389c-0.351,0-0.723-0.014-1.115-0.041c-0.393-0.029-0.778-0.067-1.156-0.116
			c-0.379-0.05-0.744-0.112-1.094-0.189c-0.352-0.077-0.66-0.171-0.926-0.284c-0.267-0.111-0.438-0.252-0.516-0.42
			c-0.077-0.169-0.115-0.372-0.115-0.61v-12.915c0-0.14,0.031-0.252,0.094-0.336s0.185-0.127,0.366-0.127h2.298
			c0.195,0,0.317,0.053,0.365,0.158c0.049,0.105,0.074,0.207,0.074,0.305V237.264z M307.877,242.354c0-0.519-0.031-0.95-0.095-1.294
			c-0.064-0.343-0.159-0.616-0.286-0.82c-0.127-0.203-0.289-0.35-0.486-0.441c-0.198-0.091-0.431-0.137-0.699-0.137
			c-0.282,0-0.529,0.015-0.741,0.043c-0.211,0.027-0.522,0.091-0.931,0.189v4.879c0.239,0.042,0.482,0.07,0.729,0.084
			s0.47,0.021,0.667,0.021c0.254,0,0.494-0.028,0.72-0.084c0.227-0.057,0.424-0.172,0.594-0.348
			c0.169-0.175,0.299-0.428,0.391-0.757S307.877,242.915,307.877,242.354z"/>
		<path fill="#113B6A" d="M316.521,244.268c0,0.294,0.07,0.478,0.21,0.547c0.141,0.07,0.372,0.112,0.694,0.126
			c0.211,0.015,0.337,0.035,0.379,0.063s0.077,0.119,0.105,0.273l0.104,1.577c0.014,0.197-0.098,0.352-0.336,0.463
			c-0.253,0.113-0.547,0.186-0.884,0.221s-0.603,0.053-0.799,0.053c-0.912,0-1.585-0.207-2.02-0.62s-0.652-1.104-0.652-2.071
			v-11.801c0-0.14,0.032-0.252,0.095-0.336c0.063-0.084,0.186-0.127,0.368-0.127h2.293c0.196,0,0.318,0.05,0.368,0.148
			c0.049,0.098,0.073,0.203,0.073,0.314V244.268z"/>
		<path fill="#113B6A" d="M322.537,243.048c0.014,0.406,0.076,0.736,0.188,0.988s0.264,0.453,0.452,0.6
			c0.189,0.147,0.421,0.246,0.694,0.295s0.586,0.073,0.937,0.073c0.322,0,0.708-0.021,1.156-0.063
			c0.449-0.041,0.891-0.091,1.325-0.146c0.28-0.028,0.456-0.025,0.526,0.01c0.069,0.035,0.133,0.187,0.188,0.453l0.169,0.988
			c0.042,0.238,0.042,0.424,0,0.557c-0.042,0.134-0.225,0.264-0.547,0.39c-0.211,0.07-0.46,0.137-0.747,0.2
			c-0.287,0.063-0.582,0.115-0.883,0.157c-0.302,0.042-0.607,0.073-0.915,0.095c-0.309,0.021-0.589,0.031-0.842,0.031
			c-1.052,0-1.903-0.146-2.556-0.441c-0.651-0.295-1.156-0.684-1.515-1.168c-0.357-0.482-0.599-1.044-0.726-1.682
			c-0.126-0.639-0.188-1.308-0.188-2.009c0-0.505,0.042-1.073,0.126-1.704s0.287-1.227,0.609-1.787
			c0.323-0.561,0.803-1.031,1.441-1.41c0.638-0.379,1.511-0.567,2.618-0.567c1.01,0,1.823,0.144,2.44,0.431
			c0.616,0.288,1.097,0.663,1.44,1.125c0.344,0.463,0.578,0.979,0.705,1.547c0.126,0.568,0.188,1.133,0.188,1.693
			c0,0.435-0.08,0.768-0.241,0.998c-0.162,0.232-0.467,0.348-0.915,0.348H322.537z M324.051,239.367
			c-0.491,0-0.852,0.151-1.083,0.452c-0.231,0.302-0.361,0.746-0.389,1.336h2.923c0-0.506-0.104-0.93-0.315-1.273
			C324.977,239.539,324.598,239.367,324.051,239.367z"/>
		<path fill="#113B6A" d="M334.104,238.567l0.042,0.043c0.182-0.197,0.402-0.383,0.662-0.559c0.26-0.174,0.529-0.336,0.81-0.482
			c0.28-0.148,0.558-0.271,0.831-0.369c0.273-0.098,0.522-0.168,0.747-0.21c0.224-0.028,0.389-0.021,0.494,0.021
			c0.105,0.043,0.172,0.197,0.199,0.463l0.253,2.062c0.014,0.099,0.021,0.179,0.021,0.242s-0.021,0.119-0.063,0.168
			c-0.042,0.05-0.105,0.091-0.189,0.126s-0.203,0.066-0.357,0.096c-1.262,0.238-2.412,0.539-3.449,0.904v5.951
			c0,0.113-0.025,0.219-0.073,0.316c-0.049,0.098-0.171,0.146-0.366,0.146h-2.298c-0.182,0-0.304-0.041-0.366-0.125
			c-0.063-0.085-0.094-0.197-0.094-0.338v-9.465c0-0.14,0.031-0.252,0.094-0.336s0.185-0.127,0.366-0.127h2.277
			c0.194,0,0.32,0.053,0.376,0.158s0.084,0.207,0.084,0.305V238.567z"/>
	</g>
</g>
</svg>
